#!Matlab matrix to amc conversion
:FULLY-SPECIFIED
:DEGREES
1
root 9.287220 16.950000 -34.276200 0.000000 0.000000 0.000000
lowerback 0.000000 0.000000 0.000000
upperback 0.000000 0.000000 0.000000
thorax 0.000000 0.000000 0.000000
lowerneck -16.000000 0.000000 0.000000
upperneck 21.000000 0.000000 0.000000
head 11.000000 0.000000 0.000000
rclavicle 0.000000 0.000000
rhumerus 0.000000 0.000000 0.000000
rradius 0.000000
rwrist 0.000000
rhand 0.000000 0.000000
rfingers 0.000000
rthumb 0.000000 0.000000
lclavicle 0.000000 0.000000
lhumerus 0.000000 0.000000 0.000000
lradius 0.000000
lwrist 0.000000
lhand 0.000000 0.000000
lfingers 0.000000
lthumb 0.000000 0.000000
rfemur 0.000000 0.000000 21.000000
rtibia 0.000000
rfoot 0.000000 0.000000
rtoes 0.000000
lfemur 0.000000 0.000000 -21.000000
ltibia 0.000000
lfoot 0.000000 0.000000
ltoes 0.000000
2
root 9.287220 16.950000 -34.276200 1.453174 1.634016 -0.211946
lowerback 11.169482 1.050361 5.183966
upperback -0.774708 2.257919 2.718081
thorax -7.132518 0.979570 -0.250159
lowerneck -11.543254 -0.809415 -2.066003
upperneck 28.575780 -0.475874 -0.693845
head 11.371554 -0.513947 0.020225
rclavicle -0.000000 0.000000
rhumerus -29.149339 -4.650701 -78.401224
rradius 35.496718
rwrist -3.867033
rhand -13.685136 10.400445
rfingers 7.125020
rthumb 12.431487 -19.137236
lclavicle -0.000000 0.000000
lhumerus -45.064211 10.563584 80.640258
lradius 35.790698
lwrist 2.990636
lhand -11.596973 45.518281
lfingers 7.125020
lthumb 14.413131 74.888355
rfemur 13.426530 6.316607 31.914521
rtibia 19.614649
rfoot -12.284398 -6.992205
rtoes 0.984146
lfemur -25.778206 -5.985534 -14.874441
ltibia 25.223810
lfoot -10.288685 10.627957
ltoes -12.359876
3
root 9.273270 17.016600 -33.905900 1.445221 1.634016 -0.323018
lowerback 10.840955 1.223708 5.009613
upperback -0.781845 2.416448 2.552551
thorax -6.956746 1.065425 -0.345295
lowerneck -11.521549 -0.831840 -2.054809
upperneck 28.795549 -0.537383 -0.604793
head 11.445809 -0.530675 0.048842
rclavicle -0.000000 0.000000
rhumerus -29.561325 -5.451386 -78.216162
rradius 34.873245
rwrist -3.249315
rhand -13.675342 10.526623
rfingers 7.125020
rthumb 12.440030 -19.018511
lclavicle -0.000000 0.000000
lhumerus -45.086033 10.706114 80.498627
lradius 35.028600
lwrist 2.857430
lhand -11.820403 45.352582
lfingers 7.125020
lthumb 14.193767 74.752680
rfemur 14.831821 6.626673 31.475009
rtibia 21.819104
rfoot -10.748767 -6.588400
rtoes -1.967213
lfemur -24.807901 -6.118315 -15.512415
ltibia 25.726357
lfoot -8.116774 9.739638
ltoes -11.357709
4
root 9.268420 17.025800 -33.555600 1.111809 1.634016 0.057398
lowerback 11.026877 1.254621 3.419310
upperback -0.886099 2.291869 2.117591
thorax -7.179954 1.039532 -0.032348
lowerneck -11.317875 -0.912881 -2.233522
upperneck 29.332507 -0.685803 -0.373995
head 11.610060 -0.591749 0.144006
rclavicle -0.000000 0.000000
rhumerus -31.011793 -7.188233 -77.851351
rradius 33.190438
rwrist -2.086469
rhand -13.731055 10.863631
rfingers 7.125020
rthumb 12.383197 -18.680501
lclavicle -0.000000 0.000000
lhumerus -44.061009 10.296947 81.518921
lradius 35.011998
lwrist 3.468686
lhand -11.923313 45.390809
lfingers 7.125020
lthumb 14.105040 74.835582
rfemur 12.275546 5.711686 29.165468
rtibia 30.836454
rfoot -3.643091 -5.928932
rtoes -3.234450
lfemur -22.563352 -5.488466 -18.099711
ltibia 26.920909
lfoot -5.181645 8.040046
ltoes -6.793924
5
root 9.249270 17.016300 -33.220600 1.164864 1.634016 0.035179
lowerback 11.738752 1.111163 2.202408
upperback -0.671776 1.964473 1.904599
thorax -7.360833 0.912044 0.375461
lowerneck -11.021877 -0.762052 -2.222384
upperneck 29.142513 -0.436521 -0.571335
head 11.475538 -0.494985 0.107213
rclavicle -0.000000 0.000000
rhumerus -31.853159 -7.986041 -77.635426
rradius 31.803413
rwrist -0.979943
rhand -13.725638 11.385782
rfingers 7.125020
rthumb 12.388929 -18.166424
lclavicle -0.000000 0.000000
lhumerus -43.338458 9.407552 82.280953
lradius 35.290301
lwrist 4.008368
lhand -11.923605 45.823016
lfingers 7.125020
lthumb 14.114186 75.276886
rfemur 7.160043 4.328810 26.748718
rtibia 40.891094
rfoot 3.482369 -6.518543
rtoes -0.330154
lfemur -19.602982 -4.920110 -20.291852
ltibia 27.678491
lfoot -5.833642 6.888830
ltoes -4.187745
6
root 9.246830 17.017700 -32.897400 1.238291 1.634016 0.021791
lowerback 12.430407 0.984505 1.272962
upperback -0.464680 1.672486 1.709646
thorax -7.527822 0.799086 0.756043
lowerneck -10.747839 -0.613422 -2.203788
upperneck 28.953954 -0.192971 -0.754948
head 11.343223 -0.399711 0.071968
rclavicle -0.000000 0.000000
rhumerus -32.651807 -8.715440 -77.443816
rradius 30.605863
rwrist 0.003467
rhand -13.725082 11.827060
rfingers 7.125020
rthumb 12.389876 -17.734037
lclavicle -0.000000 0.000000
lhumerus -42.711223 8.633913 82.947742
lradius 35.515748
lwrist 4.350587
lhand -11.909313 46.217915
lfingers 7.125020
lthumb 14.136761 75.679169
rfemur 2.243238 3.080468 24.824882
rtibia 49.617448
rfoot 6.891950 -7.041572
rtoes 1.839889
lfemur -16.814849 -4.495406 -22.129871
ltibia 28.225626
lfoot -6.514482 5.897089
ltoes -2.875925
7
root 9.219480 17.016100 -32.563300 1.354430 1.634016 0.008665
lowerback 13.111474 0.859292 0.436320
upperback -0.258466 1.386305 1.521698
thorax -7.685129 0.688304 1.129405
lowerneck -10.481755 -0.464656 -2.176455
upperneck 28.764647 0.050140 -0.939585
head 11.211314 -0.304293 0.033291
rclavicle -0.000000 0.000000
rhumerus -33.430046 -9.402182 -77.270066
rradius 29.476179
rwrist 0.937967
rhand -13.729363 12.253783
rfingers 7.125020
rthumb 12.386074 -17.315597
lclavicle -0.000000 0.000000
lhumerus -42.107541 7.919249 83.558092
lradius 35.710723
lwrist 4.580930
lhand -11.879842 46.586076
lfingers 7.125020
lthumb 14.173704 76.053456
rfemur -2.635155 1.851035 23.065001
rtibia 57.811597
rfoot 8.202007 -7.758701
rtoes 3.565641
lfemur -14.093150 -4.145957 -23.838656
ltibia 28.705923
lfoot -7.257690 5.012146
ltoes -2.081299
